<svg width="66" height="75" fill="none" xmlns="http://www.w3.org/2000/svg"><path d="M25 56V12.5a2 2 0 012-2h35.5a2 2 0 012 2V45a2 2 0 01-2 2H37l-12 9z" stroke="#162938" stroke-width="2"/><path d="M40 34.5h10m-10 0h-8l3-.5 2-1 .5-.5.5-1.5.5-9 1-2 1.5-1.5 1.5-1h5l1.5 1 1.5 1.5.5 1.5 1 9.5.5 1.5.5.5 3.5 1.5H58h-8m-10 0l.5 2.5 1.5 2 1 1 2 1 2.5-1 1.5-1.5.5-1.5.5-2.5M45.5 53v10.5m0 0V72a2 2 0 01-2 2H3a2 2 0 01-2-2v-8.5m44.5 0H1m0 0V3a2 2 0 012-2h40.5a2 2 0 012 2v2" stroke="#162938" stroke-width="2"/><circle cx="23" cy="69.5" r="1" fill="#162938"/></svg>