<svg width="79" height="75" fill="none" xmlns="http://www.w3.org/2000/svg"><path d="M58 14l-2.5-4m0 0L52 6.5 49.5 5l-3-1.5-3.5-1-5-.5-5.5.5-4 2-4 2.5-3 3.5L19 14l-2 5-5 1-3.5 2L5 24.5 2.5 29l-1 3-.5 3v3.5l.5 2.5L3 44l2 3 2.5 2.5 3 2h11m34-41.5l3 5 5.5 1 4.5 1.5 4 2.5 3.5 3.5 1.5 4L78 32v4l-.5 4-1.5 3.5-2.5 3-3 3-3 2H59" stroke="#162938" stroke-width="2"/><path d="M26.697 43H13.654v-1.818l6.89-7.657c1.022-1.157 1.724-2.096 2.106-2.816a4.71 4.71 0 00.588-2.256c0-1.039-.314-1.891-.943-2.556-.629-.666-1.468-.999-2.516-.999-1.258 0-2.237.36-2.94 1.08-.692.711-1.038 1.705-1.038 2.981h-2.53c0-1.832.588-3.313 1.764-4.443 1.185-1.13 2.766-1.696 4.744-1.696 1.85 0 3.313.488 4.389 1.463 1.076.966 1.613 2.256 1.613 3.87 0 1.959-1.248 4.292-3.746 7l-5.332 5.782h9.994V43zm13.358-6.685h2.761v2.064h-2.761V43h-2.543v-4.621h-9.065v-1.49l8.914-13.795h2.694v13.22zm-8.737 0h6.194v-9.762l-.301.547-5.893 9.215zm13.96 5.359c0-.438.127-.802.382-1.094.265-.292.656-.437 1.176-.437.52 0 .911.145 1.176.437.273.292.41.656.41 1.094 0 .42-.137.77-.41 1.053-.265.282-.657.423-1.176.423-.52 0-.911-.14-1.176-.423-.255-.283-.383-.634-.383-1.053zm.013-12.072c0-.438.128-.803.383-1.094.264-.292.656-.438 1.176-.438.52 0 .911.146 1.175.438.274.291.41.656.41 1.094 0 .419-.136.77-.41 1.052-.264.283-.656.424-1.175.424-.52 0-.912-.141-1.176-.424-.255-.282-.383-.633-.383-1.052zm19.441-5.086L56.488 43h-2.652l8.217-17.828H51.279v-2.078h13.453v1.422z" fill="#162938"/><path stroke="#162938" stroke-width="2" stroke-linecap="round" stroke-linejoin="round" d="M30 52v9"/><path d="M31.43 72.532a1 1 0 01-1.731.007l-5.67-9.726a1 1 0 01.86-1.504l11.258-.047a1 1 0 01.872 1.496l-5.588 9.774z" stroke="#162938" stroke-width="2"/><path stroke="#162938" stroke-width="2" stroke-linecap="round" d="M50 65v9"/><path d="M49.634 53.5a1 1 0 011.732 0l5.63 9.75a1 1 0 01-.867 1.5H44.871a1 1 0 01-.866-1.5l5.629-9.75z" stroke="#162938" stroke-width="2"/></svg>