<svg width="79" height="53" fill="none" xmlns="http://www.w3.org/2000/svg"><path d="M58 14l-2.5-4m0 0L52 6.5 49.5 5l-3-1.5-3.5-1-5-.5-5.5.5-4 2-4 2.5-3 3.5L19 14l-2 5-5 1-3.5 2-4 3-2 4-1 3-.5 3v3.5l.5 2.5L5 47l5.5 4.5h57l3-2 3-3 2.5-3 1.5-3.5.5-4v-4l-.5-4.5-1.5-4-3.5-3.5-4-2.5L64 16l-5.5-1-3-5z" stroke="#162938" stroke-width="2"/><path d="M34.68 16.56c-.64-.594-1.68-.14-1.68.733v23.17c0 .908 1.112 1.346 1.731.682l11.585-12.412a1 1 0 00-.05-1.415L34.68 16.56z" stroke="#162938" stroke-width="2"/></svg>