<svg width="79" height="53" fill="none" xmlns="http://www.w3.org/2000/svg"><path d="M15 31v8a3 3 0 003 3h44a3 3 0 003-3v-8a3 3 0 00-3-3H18a3 3 0 00-3 3z" stroke="#162938" stroke-width="2"/><path d="M58 14l-2.5-4m0 0L52 6.5 49.5 5l-3-1.5-3.5-1-5-.5-5.5.5-4 2-4 2.5-3 3.5L19 14l-2 5-5 1-3.5 2-4 3-2 4-1 3-.5 3v3.5l.5 2.5L5 47l5.5 4.5h57l3-2 3-3 2.5-3 1.5-3.5.5-4v-4l-.5-4.5-1.5-4-3.5-3.5-4-2.5L64 16l-5.5-1-3-5z" stroke="#162938" stroke-width="2"/><circle cx="45" cy="35.5" r="1" fill="#162938"/><circle cx="51" cy="35.5" r="1" fill="#162938"/><circle cx="58" cy="35.5" r="1" fill="#162938"/></svg>