<svg width="78" height="57" fill="none" xmlns="http://www.w3.org/2000/svg"><path d="M11.187 25.137H2.053a1 1 0 01-1-1V2a1 1 0 011-1h45.629a1 1 0 011 1v5.543a1 1 0 001 1h7.627a1 1 0 011 1v8.56a1 1 0 01-1 1h-7.627a1 1 0 01-1-1V5.526v18.611a1 1 0 01-1 1H31.454m-20.267 0V54.31a1 1 0 001 1h14.72a1 1 0 001-1v-8.06a1 1 0 00-1-1h-4.08a1 1 0 01-1-1v-9.56m-10.64-9.554h10.64m0 9.554h8.627a1 1 0 001-1v-8.554m-9.627 9.554v-9.553m9.627 0h-9.627" stroke="#162938" stroke-width="2"/><path d="M8.147 9.04v8.057a1 1 0 001 1h18.267a1 1 0 001-1V9.04a1 1 0 00-1-1H9.147a1 1 0 00-1 1z" stroke="#162938" stroke-width="2"/><path stroke="#162938" stroke-width="2" stroke-linecap="round" d="M34.481 10.057h8.134m-8.134 6.034h8.134"/><path d="M71.483 11.56h-12.16v3.017h16.213l-1.52-2.011-2.533-1.006z" stroke="#162938" stroke-width="2"/><ellipse cx="16.254" cy="13.069" rx="1.013" ry="1.006" fill="#162938"/></svg>