<svg width="56" height="76" fill="none" xmlns="http://www.w3.org/2000/svg"><mask id="path-1-inside-1" fill="#fff"><ellipse cx="12.299" cy="74.041" rx="12.299" ry="1.705"/></mask><path d="M22.598 74.041c0-.457.174-.804.323-1.007.137-.188.27-.281.305-.305.061-.041.023-.003-.218.076-.454.149-1.218.313-2.287.461-2.11.293-5.088.48-8.422.48v4c3.458 0 6.63-.193 8.971-.518 1.156-.16 2.194-.363 2.984-.622.382-.125.826-.302 1.216-.565.304-.206 1.128-.843 1.128-2h-4zm-10.3-.294c-3.333 0-6.312-.188-8.421-.48-1.07-.15-1.833-.313-2.287-.462-.241-.08-.28-.117-.218-.076.034.024.167.117.305.305.15.203.323.55.323 1.007h-4c0 1.157.824 1.794 1.128 2 .39.263.834.44 1.215.565.79.259 1.828.462 2.985.622 2.341.325 5.512.519 8.97.519v-4zM2 74.04c0 .458-.174.804-.323 1.008-.138.188-.27.281-.305.304-.062.042-.023.004.218-.075.454-.149 1.217-.313 2.287-.462 2.11-.292 5.088-.48 8.422-.48v-4c-3.459 0-6.63.194-8.971.518-1.157.16-2.194.364-2.985.623-.381.125-.826.301-1.215.565-.304.206-1.128.843-1.128 2h4zm10.299.295c3.334 0 6.312.188 8.422.48 1.07.149 1.833.313 2.287.462.24.079.28.117.218.075a1.278 1.278 0 01-.305-.304 1.71 1.71 0 01-.323-1.008h4c0-1.156-.824-1.793-1.128-2-.39-.263-.834-.439-1.216-.564-.79-.259-1.828-.462-2.984-.623-2.342-.324-5.513-.518-8.971-.518v4z" fill="#162938" mask="url(#path-1-inside-1)"/><path stroke="#162938" stroke-width=".848" d="M11.451 35.243h.848v37.521h-.848z"/><path d="M23.415 32.145c2.262 8.485 3.617 16.325 3.99 22.13.187 2.912.122 5.258-.175 6.903-.15.825-.347 1.415-.562 1.799-.214.382-.386.463-.457.482-.071.02-.26.036-.636-.188-.377-.224-.842-.636-1.381-1.275-1.076-1.275-2.299-3.275-3.585-5.89-2.565-5.215-5.29-12.686-7.552-21.17-2.262-8.486-3.617-16.325-3.99-22.13-.186-2.912-.122-5.259.175-6.903.15-.825.348-1.415.562-1.8.214-.382.386-.462.457-.482.072-.019.26-.035.636.188.377.225.842.636 1.382 1.276 1.075 1.274 2.298 3.275 3.584 5.89 2.565 5.214 5.29 12.685 7.552 21.17zm4.832-13.181c2.165 1.76 5.87 6.966 3.371 13.707m.462-21.502c4.084 4.265 12.482 9.459 6.224 27.717m-5.337-37.63c4.083 4.265 26.1 14.092 12.132 43.432" stroke="#162938" stroke-width="2"/></svg>